<svg xmlns="http://www.w3.org/2000/svg" viewBox="0 0 862 896" width="100%" height="100%">
<defs>
  <style>
    .room-poly { stroke: none; fill-opacity: 0.85; transition: fill 0.3s; }
    .wall-line { stroke: #2C3E50; stroke-width: 6; stroke-linecap: round; }
    .opening-door { stroke: #E67E22; stroke-width: 5; stroke-dasharray: 4,4; }
    .opening-win { stroke: #2980B9; stroke-width: 4; }
    .room-label { font-family: -apple-system, BlinkMacSystemFont, "Segoe UI", Roboto, sans-serif; font-size: 15px; font-weight: bold; fill: #2C3E50; text-anchor: middle; }
    .dim-label { font-family: monospace; font-size: 11px; fill: #7F8C8D; text-anchor: middle; }
    .damage-marker { fill: #E74C3C; stroke: #C0392B; stroke-width: 2; cursor: pointer; }
  </style>
</defs>
<rect width="862" height="896" fill="#FAFAFA" />
<polygon class="room-poly" points="79.96324936878241,650.0 258.88,650.0 258.88,792.3444583970384 79.96324936878241,792.3444583970384" fill="#E8F8F5" id="poly-bathroom"/>
<polygon class="room-poly" points="490.88,550.0 782.6372839399688,550.0 782.6372839399688,799.338515063356 490.88,799.338515063356" fill="#FEF9E7" id="poly-dining_room"/>
<polygon class="room-poly" points="258.88,480.4 358.88000000000005,480.4 358.88000000000005,816.4 258.88,816.4" fill="#F4F6F6" id="poly-hallway_connector"/>
<polygon class="room-poly" points="261.2608653866544,79.962877860291 540.48,79.962877860291 540.48,480.4 261.2608653866544,480.4" fill="#EBF3FB" id="poly-living_room"/>
<line class="wall-line" x1="80.0" y1="650.0" x2="258.9" y2="650.0" />
<text class="dim-label" x="169.4" y="664.0">2.24m (±10.9cm)</text>
<line class="wall-line" x1="258.9" y1="650.0" x2="258.9" y2="792.3" />
<text class="dim-label" x="244.9" y="721.2">1.78m (±9.3cm)</text>
<line class="opening-door" x1="258.9" y1="694.0" x2="258.9" y2="753.3" />
<line class="wall-line" x1="258.9" y1="792.3" x2="80.0" y2="792.3" />
<text class="dim-label" x="169.4" y="778.3">2.24m (±10.9cm)</text>
<line class="wall-line" x1="80.0" y1="792.3" x2="80.0" y2="650.0" />
<text class="dim-label" x="94.0" y="721.2">1.78m (±9.3cm)</text>
<line class="wall-line" x1="490.9" y1="550.0" x2="782.6" y2="550.0" />
<text class="dim-label" x="636.8" y="564.0">3.65m (±16.3cm)</text>
<line class="wall-line" x1="782.6" y1="550.0" x2="782.6" y2="799.4" />
<text class="dim-label" x="768.6" y="674.7">3.12m (±14.2cm)</text>
<line class="opening-win" x1="782.6" y1="618.0" x2="782.6" y2="730.0" />
<line class="wall-line" x1="782.6" y1="799.4" x2="490.9" y2="799.4" />
<text class="dim-label" x="636.8" y="785.4">3.65m (±16.3cm)</text>
<line class="wall-line" x1="490.9" y1="799.4" x2="490.9" y2="550.0" />
<text class="dim-label" x="504.9" y="674.7">3.12m (±14.2cm)</text>
<line class="opening-door" x1="490.9" y1="711.4" x2="490.9" y2="640.0" />
<line class="wall-line" x1="258.9" y1="480.4" x2="358.9" y2="480.4" />
<text class="dim-label" x="308.9" y="494.4">1.25m (±7.6cm)</text>
<line class="wall-line" x1="358.9" y1="480.4" x2="358.9" y2="816.4" />
<text class="dim-label" x="344.9" y="648.4">4.20m (±18.5cm)</text>
<line class="opening-door" x1="358.9" y1="624.4" x2="358.9" y2="708.4" />
<line class="wall-line" x1="358.9" y1="816.4" x2="258.9" y2="816.4" />
<text class="dim-label" x="308.9" y="802.4">1.25m (±7.6cm)</text>
<line class="wall-line" x1="258.9" y1="816.4" x2="258.9" y2="480.4" />
<text class="dim-label" x="272.9" y="648.4">4.20m (±18.5cm)</text>
<line class="wall-line" x1="261.3" y1="80.0" x2="540.5" y2="80.0" />
<text class="dim-label" x="400.9" y="94.0">3.49m (±15.7cm)</text>
<line class="opening-win" x1="337.3" y1="80.0" x2="465.3" y2="80.0" />
<line class="wall-line" x1="540.5" y1="80.0" x2="540.5" y2="480.4" />
<text class="dim-label" x="526.5" y="280.2">5.01m (±21.7cm)</text>
<line class="opening-door" x1="540.5" y1="272.0" x2="540.5" y2="360.0" />
<line class="wall-line" x1="540.5" y1="480.4" x2="261.3" y2="480.4" />
<text class="dim-label" x="400.9" y="466.4">3.49m (±15.7cm)</text>
<line class="opening-door" x1="444.5" y1="480.4" x2="377.1" y2="480.4" />
<line class="wall-line" x1="261.3" y1="480.4" x2="261.3" y2="80.0" />
<text class="dim-label" x="275.3" y="280.2">5.01m (±21.7cm)</text>
<text class="room-label" x="169.4" y="721.2">Full Bathroom</text>
<text class="dim-label" x="169.4" y="739.2">3.98 m² | H: 3.05m</text>
<text class="room-label" x="636.8" y="674.7">Dining Room</text>
<text class="dim-label" x="636.8" y="692.7">11.37 m² | H: 3.05m</text>
<text class="room-label" x="308.9" y="648.4">Central Hallway & Connector</text>
<text class="dim-label" x="308.9" y="666.4">5.25 m² | H: 3.05m</text>
<text class="room-label" x="400.9" y="280.2">Living & Kitchen Suite</text>
<text class="dim-label" x="400.9" y="298.2">17.47 m² | H: 3.05m</text>
</svg>